# xmcd CD database file
#
# Track frame offsets:
#	150
#	18755
#	34112
#	52241
#	65090
#	79210
#	91420
#	107700
#	122747
#	140625
#	159501
#	174581
#	190325
#	205825
#
# Disc length: 2919 seconds
#
# Revision: 0
# Processed by: cddbd v1.5.2PL0 Copyright (c) Steve Scherf et al.
# Submitted via: ACXtractor (MTCDDB.DLL V2003.12.21)
#
DISCID=c60b650e
DTITLE=Dianne Lindsay - Heartbeat of Australia
DYEAR=2009
DGENRE=Country
TTITLE0=Cooper After Rain
TTITLE1=The Message
TTITLE2=Heartbeat of Australia
TTITLE3=Jackie Howe
TTITLE4=Shadows of the Red Gums
TTITLE5=Long Road Home(With Anne Kirkpatrick)
TTITLE6=House down willow Lane
TTITLE7=When rivers Run
TTITLE8=Country all the Way (with Reg Lindsay)
TTITLE9=Kellie's Eyes
TTITLE10=Gai Waterhouse
TTITLE11=St.Patricks Day
TTITLE12=Bush Haven
TTITLE13=Winter Winds
EXTD=ID3G:   2 YEAR: 2009
EXTT0=
EXTT1=
EXTT2=
EXTT3=
EXTT4=
EXTT5=
EXTT6=
EXTT7=
EXTT8=
EXTT9=
EXTT10=
EXTT11=
EXTT12=
EXTT13=
PLAYORDER=
